# xmcd
#
# Track frame offsets: 
#        150
#        13455
#        26021
#        41199
#        55791
#        67876
#        81533
#        94784
#        112704
#        130354
#        148909
#        166951
#        185263
#        203253
#        220510
#        236553
#        253172
#        264411
#
# Disc length: 3827 seconds
#
# Revision: 1
# Processed by: cddbd v1.5.2PL0 Copyright (c) Steve Scherf et al.
# Submitted via: ExactAudioCopyFreeDBPlugin 1.0
#
DISCID=fc0ef112
DTITLE=盧冠廷 - Masterpieces Since 1982 CD1
DYEAR=2016
DGENRE=Country
TTITLE0=果子-葉振棠
TTITLE1=坭路上-盧業瑂
TTITLE2=愛的百合匙-楊小菁 [無線電視劇「假日風情」插曲]
TTITLE3=送我一枝胡姬花-吳鶯音
TTITLE4=天鳥-盧冠廷
TTITLE5=流浪歌手-盧冠廷
TTITLE6=又再想起你-盧冠廷
TTITLE7=如何把你挽留-黃鶯鶯
TTITLE8=天籟...星河傳說-關正傑
TTITLE9=小鎮-盧冠廷
TTITLE10=哈唎哈唎 (Harley Harley)-盧冠廷
TTITLE11=拾荒者-盧冠廷
TTITLE12=失戀的海盜-盧冠廷
TTITLE13=十四噸空虛-盧冠廷
TTITLE14=過路人-盧冠廷
TTITLE15=小丑-泰迪羅賓 [電影「多情種」主題曲]
TTITLE16=愛是這樣甜-譚詠麟
TTITLE17=風原是這裡清-葉德嫻
EXTD=冠廷久休復出，新碟《Beyond Imagination》達白金唱片銷量，成績斐然，並將於6月在紅館舉行演唱會。2016年發燒碟《
EXTD=Masterpieces Since 1982》3CD翻唱之前為其他歌手創作的金曲，包括關正傑「天籟...星河傳說」、張國榮「妳在
EXTD=何地」、盧業瑂「坭路上」、林子祥「最愛是誰」、劉德華「緣盡」、張學友「天變地變情不變」等，以及重新演繹「快樂老實人」、「陪着你走」
EXTD=、「老年時」等個人代表作共53首。 
EXTT0=
EXTT1=
EXTT2=
EXTT3=
EXTT4=
EXTT5=
EXTT6=
EXTT7=
EXTT8=
EXTT9=
EXTT10=
EXTT11=
EXTT12=
EXTT13=
EXTT14=
EXTT15=
EXTT16=
EXTT17=
PLAYORDER=
